<svg xmlns="http://www.w3.org/2000/svg" viewBox="0 0 1200 760" fill="none">
  <rect width="1200" height="760" rx="40" fill="#08131A"/>
  <rect x="42" y="42" width="1116" height="676" rx="30" fill="#10232C" stroke="#1D3842"/>
  <rect x="82" y="82" width="1036" height="56" rx="18" fill="#0B1A21"/>
  <rect x="110" y="98" width="196" height="24" rx="10" fill="#17313C"/>
  <rect x="82" y="170" width="1036" height="506" rx="26" fill="#0A171D"/>
  <rect x="114" y="204" width="972" height="330" rx="24" fill="url(#paint0_linear_129_4)"/>
  <rect x="184" y="564" width="832" height="58" rx="24" fill="#0F2830"/>
  <rect x="230" y="582" width="236" height="22" rx="11" fill="#FFD166"/>
  <rect x="482" y="582" width="164" height="22" rx="11" fill="#00BFA5"/>
  <rect x="662" y="582" width="142" height="22" rx="11" fill="#72E2D1"/>
  <rect x="820" y="582" width="146" height="22" rx="11" fill="#FFD166" fill-opacity=".78"/>
  <rect x="154" y="236" width="166" height="22" rx="11" fill="#72E2D1" fill-opacity=".85"/>
  <rect x="154" y="278" width="252" height="16" rx="8" fill="#D7E5EA" fill-opacity=".23"/>
  <rect x="154" y="306" width="214" height="16" rx="8" fill="#D7E5EA" fill-opacity=".18"/>
  <circle cx="904" cy="344" r="84" fill="#00BFA5" fill-opacity=".22"/>
  <circle cx="980" cy="284" r="48" fill="#FFD166" fill-opacity=".28"/>
  <defs>
    <linearGradient id="paint0_linear_129_4" x1="114" y1="204" x2="1086" y2="534" gradientUnits="userSpaceOnUse">
      <stop stop-color="#14303A"/>
      <stop offset=".5" stop-color="#0F2330"/>
      <stop offset="1" stop-color="#1A3240"/>
    </linearGradient>
  </defs>
</svg>
