<svg xmlns="http://www.w3.org/2000/svg" viewBox="0 0 1200 760" fill="none">
  <rect width="1200" height="760" rx="40" fill="#08131A"/>
  <rect x="40" y="40" width="1120" height="680" rx="30" fill="#10232C" stroke="#1E3B46"/>
  <rect x="78" y="78" width="1044" height="54" rx="16" fill="#0B1A21"/>
  <rect x="108" y="93" width="220" height="24" rx="10" fill="#17313C"/>
  <rect x="78" y="164" width="284" height="514" rx="24" fill="#0C1B22"/>
  <rect x="386" y="164" width="736" height="514" rx="24" fill="#0C1B22"/>
  <rect x="108" y="198" width="224" height="90" rx="18" fill="#11303A"/>
  <rect x="108" y="312" width="224" height="90" rx="18" fill="#123944"/>
  <rect x="108" y="426" width="224" height="90" rx="18" fill="#11303A"/>
  <rect x="108" y="540" width="152" height="18" rx="9" fill="#72E2D1" fill-opacity=".35"/>
  <rect x="416" y="196" width="676" height="290" rx="24" fill="url(#paint0_linear_211_3)"/>
  <rect x="458" y="528" width="592" height="86" rx="22" fill="#112E38"/>
  <rect x="486" y="558" width="126" height="24" rx="12" fill="#FFD166"/>
  <rect x="632" y="558" width="154" height="24" rx="12" fill="#00BFA5"/>
  <rect x="806" y="558" width="96" height="24" rx="12" fill="#72E2D1"/>
  <rect x="922" y="558" width="98" height="24" rx="12" fill="#FFD166" fill-opacity=".7"/>
  <rect x="456" y="226" width="170" height="18" rx="9" fill="#72E2D1" fill-opacity=".85"/>
  <rect x="456" y="258" width="230" height="16" rx="8" fill="#D7E5EA" fill-opacity=".2"/>
  <circle cx="970" cy="334" r="90" fill="#FFD166" fill-opacity=".16"/>
  <circle cx="876" cy="372" r="58" fill="#00BFA5" fill-opacity=".22"/>
  <defs>
    <linearGradient id="paint0_linear_211_3" x1="416" y1="196" x2="1092" y2="486" gradientUnits="userSpaceOnUse">
      <stop stop-color="#132E39"/>
      <stop offset=".55" stop-color="#0E2330"/>
      <stop offset="1" stop-color="#173240"/>
    </linearGradient>
  </defs>
</svg>
